<?xml version="1.0" standalone="no"?>
<!DOCTYPE svg PUBLIC "-//W3C//DTD SVG 20010904//EN"
 "http://www.w3.org/TR/2001/REC-SVG-20010904/DTD/svg10.dtd">
<svg version="1.0" xmlns="http://www.w3.org/2000/svg"
 width="256.000000pt" height="256.000000pt" viewBox="0 0 256.000000 256.000000"
 preserveAspectRatio="xMidYMid meet">

<g transform="translate(0.000000,256.000000) scale(0.100000,-0.100000)"
fill="#000000" stroke="none">
<path d="M640 2240 l0 -60 -65 0 -65 0 0 -65 0 -65 -65 0 -65 0 0 -195 0 -195
-60 0 -60 0 0 -190 0 -190 60 0 60 0 0 -190 0 -190 65 0 65 0 0 -65 0 -65 65
0 65 0 0 -65 0 -65 190 0 190 0 0 -65 0 -65 -255 0 -255 0 0 -65 0 -65 -65 0
-65 0 0 -190 0 -190 900 0 900 0 0 190 0 190 -65 0 -65 0 0 65 0 65 -255 0
-255 0 0 65 0 65 190 0 190 0 0 65 0 65 65 0 65 0 0 65 0 65 65 0 65 0 0 190
0 190 60 0 60 0 0 190 0 190 -60 0 -60 0 0 195 0 195 -65 0 -65 0 0 65 0 65
-65 0 -65 0 0 60 0 60 -640 0 -640 0 0 -60z"/>
</g>
</svg>
